<svg xmlns="http://www.w3.org/2000/svg" height="37.5004677392215" width="245"
  style="width: 245px; height: 37.5005px; position: absolute; top: 50%; left: 50%; transform: translate(-50%, -50%) scale(1); z-index: 0; cursor: pointer;">
  <defs id="SvgjsDefs1001"></defs>
  <g id="SvgjsG1007" featurekey="PG4fjM-0"
    transform="matrix(0.780987455293664,0,0,0.780987455293664,-7.801474611949241,-1.5489042806540199)" fill="#2688f0">
    <g xmlns="http://www.w3.org/2000/svg">
      <rect x="19" y="37.9" width="14" height="2"></rect>
      <path
        d="M19,44.4c0,0.8,0.7,1.5,1.5,1.5H22c0,0,0,0.1,0,0.1c0,2.2,1.8,4,4,4c2.2,0,4-1.8,4-4c0,0,0-0.1,0-0.1h1.5   c0.8,0,1.5-0.7,1.5-1.5v-2.5H19V44.4z">
      </path>
      <path
        d="M37,6.4c-3.2-3-7.4-4.6-11.8-4.4C17,2.4,10.3,9.1,10,17.4c-0.2,5.5,2.4,10.6,6.9,13.8c1.3,0.9,2.1,2.5,2.1,4.2v0.6h3v-20h8   v20h3v-0.6c0-1.7,0.8-3.3,2.1-4.1c4.3-3,6.9-7.9,6.9-13.2C42,13.6,40.2,9.4,37,6.4z M22.4,13.9l2.7-5.4c0.3-0.7,1.5-0.7,1.8,0   l2.7,5.4H22.4z">
      </path>
    </g>
  </g>
  <g id="SvgjsG1008" featurekey="jxYttZ-0"
    transform="matrix(2.3386343294041176,0,0,2.3386343294041176,41.72591060065694,-10.693171647020588)" fill="#0d0d0d">
    <path
      d="M3.62 18.16 l7.56 0 l0 1.84 l-9.78 0 l0 -15 l2.22 0 l0 13.16 z M22.5 15.08 l0 0.74 l-7.78 0 c0 1.82 1.74 2.7 3.02 2.7 c0.94 0 1.98 -0.5 2.54 -1.3 l1.42 1.28 c-0.66 0.9 -1.74 1.7 -3.96 1.7 c-3.2 0 -5.16 -2.18 -5.16 -5.12 s1.9 -5.14 4.96 -5.14 s4.46 1.7 4.88 4.18 c0.06 0.32 0.08 0.64 0.08 0.96 z M14.76 14.120000000000001 l5.58 0 c0 -1.6 -1.28 -2.48 -2.8 -2.48 s-2.78 1.02 -2.78 2.48 z M33.82 15.08 l0 0.74 l-7.78 0 c0 1.82 1.74 2.7 3.02 2.7 c0.94 0 1.98 -0.5 2.54 -1.3 l1.42 1.28 c-0.66 0.9 -1.74 1.7 -3.96 1.7 c-3.2 0 -5.16 -2.18 -5.16 -5.12 s1.9 -5.14 4.96 -5.14 s4.46 1.7 4.88 4.18 c0.06 0.32 0.08 0.64 0.08 0.96 z M26.080000000000002 14.120000000000001 l5.58 0 c0 -1.6 -1.28 -2.48 -2.8 -2.48 s-2.78 1.02 -2.78 2.48 z M39.620000000000005 18.36 c0.64 0.26 1.14 0.08 1.44 -0.06 l0 1.6 c-0.26 0.16 -0.64 0.3 -1.18 0.3 c-1.18 0 -2.22 -0.38 -2.86 -1.42 c-0.6 -1 -0.6 -1.54 -0.6 -3.1 l0 -3.88 l-1.2 0 l0 -1.68 l1.2 0 l0 -3.12 l2.06 0 l0 3.12 l2.58 0 l0 1.68 l-2.58 0 l0 3.88 c0 1.64 0.16 2.24 1.14 2.68 z M52.78 15.08 l0 0.74 l-7.78 0 c0 1.82 1.74 2.7 3.02 2.7 c0.94 0 1.98 -0.5 2.54 -1.3 l1.42 1.28 c-0.66 0.9 -1.74 1.7 -3.96 1.7 c-3.2 0 -5.16 -2.18 -5.16 -5.12 s1.9 -5.14 4.96 -5.14 s4.46 1.7 4.88 4.18 c0.06 0.32 0.08 0.64 0.08 0.96 z M45.040000000000006 14.120000000000001 l5.58 0 c0 -1.6 -1.28 -2.48 -2.8 -2.48 s-2.78 1.02 -2.78 2.48 z M61.68000000000001 17.42 l1.42 1.28 c-0.94 1.04 -2.28 1.5 -3.78 1.5 c-2.84 0 -5.14 -2.18 -5.14 -5.12 s2.3 -5.14 5.14 -5.14 c1.5 0 2.84 0.46 3.78 1.5 l-1.42 1.28 c-0.58 -0.78 -1.42 -1.08 -2.36 -1.08 c-1.7 0 -3.08 1.42 -3.08 3.44 c0 2 1.38 3.44 3.08 3.44 c0.94 0 1.78 -0.3 2.36 -1.1 z M74.44 14.3 l0 5.7 l-2.06 0 l0 -5.5 c0 -2 -0.62 -2.88 -2.32 -2.88 c-1.92 0 -2.7 1.34 -2.7 3.08 l0 5.3 l-2.06 0 l0 -15 l2.06 0 l0 6.72 c0.28 -0.88 1.52 -1.68 2.7 -1.76 c2.68 -0.2 4.38 1.1 4.38 4.34 z M81.78 11.64 c-1.7 0 -3.08 1.42 -3.08 3.44 c0 2 1.38 3.44 3.08 3.44 s3.08 -1.44 3.08 -3.44 c0 -2.02 -1.38 -3.44 -3.08 -3.44 z M81.78 9.94 c2.84 0 5.14 2.2 5.14 5.14 s-2.3 5.12 -5.14 5.12 s-5.14 -2.18 -5.14 -5.12 s2.3 -5.14 5.14 -5.14 z">
    </path>
  </g>
</svg>