<svg version="1.2" baseProfile="tiny-ps" xmlns="http://www.w3.org/2000/svg" viewBox="0 0 351 66" width="351" height="66">
	<title>logo-text-svg</title>
	<style>
		tspan { white-space:pre }
		.shp0 { fill: #0d0d0d } 
	</style>
	<g id="SvgjsG1008">
		<path id="Layer" fill-rule="evenodd" class="shp0" d="M40.03 56.86L40.03 64.39L0 64.39L0 3L9.09 3L9.09 56.86L40.03 56.86ZM86.35 47.28L54.51 47.28C54.51 54.73 61.63 58.33 66.87 58.33C70.72 58.33 74.98 56.29 77.27 53.01L83.08 58.25C80.38 61.93 75.96 65.21 66.87 65.21C53.78 65.21 45.76 56.29 45.76 44.25C45.76 32.22 53.53 23.22 66.05 23.22C78.58 23.22 84.31 30.17 86.03 40.32C86.27 41.63 86.35 42.94 86.35 44.25L86.35 47.28ZM54.68 40.32L77.51 40.32C77.51 33.78 72.28 30.17 66.05 30.17C59.83 30.17 54.68 34.35 54.68 40.32ZM132.68 47.28L100.84 47.28C100.84 54.73 107.96 58.33 113.2 58.33C117.05 58.33 121.3 56.29 123.6 53.01L129.41 58.25C126.71 61.93 122.29 65.21 113.2 65.21C100.11 65.21 92.08 56.29 92.08 44.25C92.08 32.22 99.86 23.22 112.38 23.22C124.91 23.22 130.64 30.17 132.36 40.32C132.6 41.63 132.68 42.94 132.68 44.25L132.68 47.28ZM101.01 40.32L123.84 40.32C123.84 33.78 118.6 30.17 112.38 30.17C106.16 30.17 101.01 34.35 101.01 40.32ZM156.42 57.68C159.04 58.74 161.09 58 162.31 57.43L162.31 63.98C161.25 64.63 159.69 65.21 157.48 65.21C152.65 65.21 148.4 63.65 145.78 59.4C143.32 55.3 143.32 53.09 143.32 46.71L143.32 30.83L138.41 30.83L138.41 23.95L143.32 23.95L143.32 11.19L151.75 11.19L151.75 23.95L162.31 23.95L162.31 30.83L151.75 30.83L151.75 46.71C151.75 53.42 152.41 55.88 156.42 57.68ZM210.28 47.28L178.44 47.28C178.44 54.73 185.56 58.33 190.8 58.33C194.64 58.33 198.9 56.29 201.19 53.01L207 58.25C204.3 61.93 199.88 65.21 190.8 65.21C177.7 65.21 169.68 56.29 169.68 44.25C169.68 32.22 177.46 23.22 189.98 23.22C202.5 23.22 208.23 30.17 209.95 40.32C210.2 41.63 210.28 42.94 210.28 44.25L210.28 47.28ZM178.6 40.32L201.44 40.32C201.44 33.78 196.2 30.17 189.98 30.17C183.76 30.17 178.6 34.35 178.6 40.32ZM252.51 59.07C248.67 63.33 243.18 65.21 237.04 65.21C225.42 65.21 216.01 56.29 216.01 44.25C216.01 32.22 225.42 23.22 237.04 23.22C243.18 23.22 248.67 25.1 252.51 29.36L246.7 34.59C244.33 31.4 240.89 30.17 237.04 30.17C230.09 30.17 224.44 35.99 224.44 44.25C224.44 52.44 230.09 58.33 237.04 58.33C240.89 58.33 244.33 57.1 246.7 53.83L252.51 59.07ZM298.92 64.39L290.49 64.39L290.49 41.88C290.49 33.69 287.96 30.09 281 30.09C273.14 30.09 269.95 35.58 269.95 42.7L269.95 64.39L261.52 64.39L261.52 3L269.95 3L269.95 30.5C271.09 26.9 276.17 23.63 281 23.3C291.97 22.48 298.92 27.8 298.92 41.06L298.92 64.39ZM350 44.25C350 56.29 340.59 65.21 328.96 65.21C317.34 65.21 307.93 56.29 307.93 44.25C307.93 32.22 317.34 23.22 328.96 23.22C340.59 23.22 350 32.22 350 44.25ZM328.96 30.17C322.01 30.17 316.36 35.99 316.36 44.25C316.36 52.44 322.01 58.33 328.96 58.33C335.92 58.33 341.57 52.44 341.57 44.25C341.57 35.99 335.92 30.17 328.96 30.17Z" />
	</g>
</svg>