<svg version="1.2" baseProfile="tiny-ps" xmlns="http://www.w3.org/2000/svg" viewBox="0 0 50 50" width="50" height="50">
	<title>windows-svg</title>
	<style>
		tspan { white-space:pre }
		.shp0 { fill: #000000 } 
	</style>
	<path id="Layer" class="shp0" d="M19.85 7.76L4.85 10.01C4.36 10.09 4 10.51 4 11L4 23C4 23.55 4.45 24 5 24L20 24C20.55 24 21 23.55 21 23L21 8.75C21 8.46 20.87 8.18 20.65 7.99C20.43 7.8 20.14 7.72 19.85 7.76ZM45.65 4.24C45.43 4.05 45.14 3.97 44.85 4.01L23.85 7.16C23.36 7.24 23 7.66 23 8.15L23 23C23 23.55 23.45 24 24 24L45 24C45.55 24 46 23.55 46 23L46 5C46 4.71 45.87 4.43 45.65 4.24ZM20 26L5 26C4.45 26 4 26.45 4 27L4 39C4 39.49 4.36 39.91 4.85 39.99L19.85 42.24C19.9 42.25 19.95 42.25 20 42.25C20.24 42.25 20.47 42.16 20.65 42.01C20.87 41.82 21 41.54 21 41.25L21 27C21 26.45 20.55 26 20 26ZM45 26L24 26C23.45 26 23 26.45 23 27L23 41.85C23 42.34 23.36 42.77 23.85 42.84L44.85 45.99C44.9 46 44.95 46 45 46C45.24 46 45.47 45.91 45.65 45.76C45.87 45.57 46 45.29 46 45L46 27C46 26.45 45.55 26 45 26Z" />
</svg>