<svg height="200" width="200" style="width: 200px; height: 200px; position: absolute; top: 50%; left: 50%; transform: translate(-50%, -50%) scale(0.2); z-index: 0; cursor: default;">
  <defs id="SvgjsDefs1001"></defs>
  <g id="SvgjsG1007" featurekey="symbolGroupContainer" transform="matrix(1.7324999999999997,0,0,1.7324999999999997,13,0)" fill="#2688f0">
    <circle xmlns="http://www.w3.org/2000/svg" cx="50" cy="50" r="50"></circle>
  </g>
  <g id="SvgjsG1008" featurekey="DUScZC-0" transform="matrix(2.1867648748222592,0,0,2.1867648748222592,43.15587108654212,29.663068014168744)" fill="#ffffff">
    <g xmlns="http://www.w3.org/2000/svg">
      <rect x="19" y="37.9" width="14" height="2"></rect>
      <path d="M19,44.4c0,0.8,0.7,1.5,1.5,1.5H22c0,0,0,0.1,0,0.1c0,2.2,1.8,4,4,4c2.2,0,4-1.8,4-4c0,0,0-0.1,0-0.1h1.5   c0.8,0,1.5-0.7,1.5-1.5v-2.5H19V44.4z"></path>
      <path d="M37,6.4c-3.2-3-7.4-4.6-11.8-4.4C17,2.4,10.3,9.1,10,17.4c-0.2,5.5,2.4,10.6,6.9,13.8c1.3,0.9,2.1,2.5,2.1,4.2v0.6h3v-20h8   v20h3v-0.6c0-1.7,0.8-3.3,2.1-4.1c4.3-3,6.9-7.9,6.9-13.2C42,13.6,40.2,9.4,37,6.4z M22.4,13.9l2.7-5.4c0.3-0.7,1.5-0.7,1.8,0   l2.7,5.4H22.4z"></path>
    </g>
  </g>
</svg>