<?xml version="1.0" encoding="UTF-8" standalone="no"?>
<!DOCTYPE svg PUBLIC "-//W3C//DTD SVG 1.1//EN" "http://www.w3.org/Graphics/SVG/1.1/DTD/svg11.dtd">
<svg height="245.20768409059747" width="350.00000000000006" style="width: 350px; height: 245.208px; position: absolute; top: 60%; left: 50%; transform: translate(-50%, -50%) scale(0.43); z-index: 0; cursor: default;">
  <defs id="SvgjsDefs1001"></defs>
  <g id="SvgjsG1007" featurekey="PG4fjM-0" transform="matrix(3.4016342497235144,0,0,3.4016342497235144,77.02024391239885,-2.7463386446263973)" fill="#2688f0">
    <g xmlns="http://www.w3.org/2000/svg">
      <rect x="19" y="37.9" width="14" height="2"></rect>
      <path d="M19,44.4c0,0.8,0.7,1.5,1.5,1.5H22c0,0,0,0.1,0,0.1c0,2.2,1.8,4,4,4c2.2,0,4-1.8,4-4c0,0,0-0.1,0-0.1h1.5   c0.8,0,1.5-0.7,1.5-1.5v-2.5H19V44.4z"></path>
      <path d="M37,6.4c-3.2-3-7.4-4.6-11.8-4.4C17,2.4,10.3,9.1,10,17.4c-0.2,5.5,2.4,10.6,6.9,13.8c1.3,0.9,2.1,2.5,2.1,4.2v0.6h3v-20h8   v20h3v-0.6c0-1.7,0.8-3.3,2.1-4.1c4.3-3,6.9-7.9,6.9-13.2C42,13.6,40.2,9.4,37,6.4z M22.4,13.9l2.7-5.4c0.3-0.7,1.5-0.7,1.8,0   l2.7,5.4H22.4z"></path>
    </g>
  </g>
</svg>